<svg width="6" height="10" viewBox="0 0 6 10" fill="none" xmlns="http://www.w3.org/2000/svg">
<path d="M5.91357 5.27263L0.496802 0.0623749C0.298389 -0.089216 0 0.0554684 0 0.282185V7.40259C0 7.56193 0.134399 7.69125 0.3 7.69125C0.378003 7.69125 0.452783 7.66236 0.49563 7.62078L1.99636 6.36259L3.22039 9.11413C3.24119 9.16107 3.28037 9.19807 3.32959 9.21731C3.35361 9.22612 3.37881 9.23077 3.404 9.23077C3.43081 9.23077 3.45762 9.22534 3.48281 9.21498L4.77078 8.68382C4.87236 8.64231 4.9196 8.52912 4.87603 8.43138L3.69119 5.7668H5.7C5.8656 5.7668 6 5.63748 6 5.47814C6 5.43155 5.98762 5.3615 5.91357 5.27263Z" fill="#161616"/>
</svg>
